<svg width="115" height="33" viewBox="0 0 115 33" fill="none" xmlns="http://www.w3.org/2000/svg">
<rect width="115" height="33" rx="10" fill="white"/>
<circle cx="22" cy="16" r="6" fill="#12B76A"/>
<path d="M49.5078 16.2734C49.5078 17.1536 49.3958 17.9557 49.1719 18.6797C48.9479 19.3984 48.6146 20.0182 48.1719 20.5391C47.7344 21.0547 47.1901 21.4531 46.5391 21.7344C45.888 22.0156 45.1328 22.1562 44.2734 22.1562C43.388 22.1562 42.6146 22.0156 41.9531 21.7344C41.2969 21.4531 40.75 21.0521 40.3125 20.5312C39.8802 20.0104 39.5547 19.388 39.3359 18.6641C39.1224 17.9401 39.0156 17.138 39.0156 16.2578C39.0156 15.0911 39.2083 14.0677 39.5938 13.1875C39.9792 12.3073 40.5625 11.6224 41.3438 11.1328C42.1302 10.6432 43.1146 10.3984 44.2969 10.3984C45.4271 10.3984 46.3776 10.6406 47.1484 11.125C47.9245 11.6094 48.5104 12.2917 48.9062 13.1719C49.3073 14.0469 49.5078 15.0807 49.5078 16.2734ZM40.4141 16.2734C40.4141 17.2422 40.5521 18.0807 40.8281 18.7891C41.1042 19.4974 41.526 20.0443 42.0938 20.4297C42.6667 20.8151 43.3932 21.0078 44.2734 21.0078C45.1589 21.0078 45.8828 20.8151 46.4453 20.4297C47.013 20.0443 47.4323 19.4974 47.7031 18.7891C47.974 18.0807 48.1094 17.2422 48.1094 16.2734C48.1094 14.7995 47.7995 13.6484 47.1797 12.8203C46.5651 11.987 45.6042 11.5703 44.2969 11.5703C43.4115 11.5703 42.6823 11.7604 42.1094 12.1406C41.5365 12.5208 41.1094 13.0625 40.8281 13.7656C40.5521 14.4635 40.4141 15.2995 40.4141 16.2734ZM53.1641 13.4375V17.0312H57.9375V13.4375H59.2344V22H57.9375V18.1328H53.1641V22H51.8594V13.4375H53.1641ZM68.4062 22H67.0859V14.5234H64.4844C64.3802 15.8724 64.2474 17.0286 64.0859 17.9922C63.9297 18.9505 63.7318 19.7344 63.4922 20.3438C63.2578 20.9479 62.9714 21.3932 62.6328 21.6797C62.2995 21.9609 61.901 22.1016 61.4375 22.1016C61.2969 22.1016 61.1641 22.0938 61.0391 22.0781C60.9141 22.0625 60.8073 22.0365 60.7188 22V21.0156C60.7865 21.0365 60.8568 21.0521 60.9297 21.0625C61.0078 21.0729 61.0885 21.0781 61.1719 21.0781C61.4062 21.0781 61.6198 20.9818 61.8125 20.7891C62.0104 20.5911 62.1875 20.2943 62.3438 19.8984C62.5052 19.5026 62.6484 19.0026 62.7734 18.3984C62.8984 17.7891 63.0078 17.0729 63.1016 16.25C63.2005 15.4219 63.2865 14.4844 63.3594 13.4375H68.4062V22ZM74.3438 13.2969C75.3646 13.2969 76.1224 13.526 76.6172 13.9844C77.112 14.4427 77.3594 15.1745 77.3594 16.1797V22H76.4141L76.1641 20.7344H76.1016C75.862 21.0469 75.612 21.3099 75.3516 21.5234C75.0911 21.7318 74.7891 21.8906 74.4453 22C74.1068 22.1042 73.6901 22.1562 73.1953 22.1562C72.6745 22.1562 72.2109 22.0651 71.8047 21.8828C71.4036 21.7005 71.0859 21.4245 70.8516 21.0547C70.6224 20.6849 70.5078 20.2161 70.5078 19.6484C70.5078 18.7943 70.8464 18.138 71.5234 17.6797C72.2005 17.2214 73.2318 16.9714 74.6172 16.9297L76.0938 16.8672V16.3438C76.0938 15.6042 75.9349 15.0859 75.6172 14.7891C75.2995 14.4922 74.8516 14.3438 74.2734 14.3438C73.8255 14.3438 73.3984 14.4089 72.9922 14.5391C72.5859 14.6693 72.2005 14.8229 71.8359 15L71.4375 14.0156C71.8229 13.8177 72.2656 13.6484 72.7656 13.5078C73.2656 13.3672 73.7917 13.2969 74.3438 13.2969ZM76.0781 17.7812L74.7734 17.8359C73.7057 17.8776 72.9531 18.0521 72.5156 18.3594C72.0781 18.6667 71.8594 19.1016 71.8594 19.6641C71.8594 20.1536 72.0078 20.5156 72.3047 20.75C72.6016 20.9844 72.9948 21.1016 73.4844 21.1016C74.2448 21.1016 74.8672 20.8906 75.3516 20.4688C75.8359 20.0469 76.0781 19.4141 76.0781 18.5703V17.7812ZM81.2656 13.4375V18.8203C81.2656 18.9245 81.263 19.0599 81.2578 19.2266C81.2526 19.388 81.2448 19.5625 81.2344 19.75C81.224 19.9323 81.2135 20.1094 81.2031 20.2812C81.1979 20.4479 81.1901 20.5859 81.1797 20.6953L85.8516 13.4375H87.4453V22H86.2344V16.75C86.2344 16.5833 86.237 16.3698 86.2422 16.1094C86.2474 15.849 86.2552 15.5938 86.2656 15.3438C86.276 15.0885 86.2839 14.8906 86.2891 14.75L81.6328 22H80.0312V13.4375H81.2656ZM86.8047 9.91406C86.7578 10.4401 86.625 10.8802 86.4062 11.2344C86.1927 11.5885 85.8776 11.8568 85.4609 12.0391C85.0443 12.2161 84.5104 12.3047 83.8594 12.3047C83.1875 12.3047 82.6458 12.2188 82.2344 12.0469C81.8281 11.8698 81.526 11.6042 81.3281 11.25C81.1354 10.8958 81.0208 10.4505 80.9844 9.91406H82.2031C82.2604 10.487 82.4141 10.8776 82.6641 11.0859C82.9141 11.2943 83.3203 11.3984 83.8828 11.3984C84.3828 11.3984 84.776 11.2891 85.0625 11.0703C85.349 10.8516 85.5208 10.4661 85.5781 9.91406H86.8047ZM91.5078 13.4375V17.0312H96.2812V13.4375H97.5781V22H96.2812V18.1328H91.5078V22H90.2031V13.4375H91.5078Z" fill="#140A32"/>
</svg>
